<?xml version="1.0" encoding="utf-8"?>
<!-- Generator: Adobe Illustrator 19.2.1, SVG Export Plug-In . SVG Version: 6.00 Build 0)  -->
<svg version="1.1" id="Layer_1" xmlns="http://www.w3.org/2000/svg" xmlns:xlink="http://www.w3.org/1999/xlink" x="0px" y="0px"
	 viewBox="0 0 111.9 111.9" style="enable-background:new 0 0 111.9 111.9;" xml:space="preserve">
<style type="text/css">
	.st0{fill:#EE7624;}
</style>
<path class="st0" d="M56.1,13.4c-24.8,0-44.9,20.1-44.9,44.9c0,24.8,20.1,44.8,44.8,44.8c24.8,0,44.8-20.1,44.8-44.8
	C100.9,33.5,80.8,13.4,56.1,13.4z M56.1,90.9c-3.6,0-6.6-2.9-6.6-6.6s2.9-6.6,6.6-6.6s6.6,2.9,6.6,6.6S59.7,90.9,56.1,90.9z
	 M60.8,55.8c-1.4,8.8-2,13.8-2.1,15.1c0,1.2-0.1,1.9-0.2,2.1s-0.5,0.3-1.1,0.3h-2.7c-0.6,0-0.9-0.1-1-0.3s-0.2-0.8-0.2-1.8
	c0-1.6-1-8.7-2.9-21.6c-1.5-10.1-2.2-15.6-2.2-16.5c0-2.1,0.7-3.9,2.1-5.3c1.4-1.5,3.4-2.2,5.9-2.2c2.4,0,4.3,0.8,5.6,2.4
	c1.3,1.6,1.9,3.4,1.9,5.6C63.8,35,62.8,42.5,60.8,55.8z"/>
</svg>
